<svg version="1.1" xmlns="http://www.w3.org/2000/svg" xmlns:xlink="http://www.w3.org/1999/xlink" width="954.7216796875" height="672"><defs/><g><g transform="translate(-22,2) scale(1,1)"><rect fill="#C0C0C0" stroke="none" x="311" y="247" width="135.4453125" height="57" opacity="0.2"/></g><g transform="translate(-22,2) scale(1,1)"><rect fill="#ffffff" stroke="none" x="304" y="240" width="135.4453125" height="57"/></g><g transform="translate(-22,2) scale(1,1)"><path fill="none" stroke="#000000" d="M 304 240 L 439.4453125 240 L 439.4453125 297 L 304 297 L 304 240 Z Z" stroke-miterlimit="10"/></g><g transform="translate(-22,2) scale(1,1)"><path fill="none" stroke="#000000" d="M 304 265 L 439.4453125 265" stroke-miterlimit="10"/></g><g transform="translate(-22,2) scale(1,1)"><path fill="none" stroke="#000000" d="M 304 288 L 439.4453125 288" stroke-miterlimit="10"/></g><g transform="translate(-22,2) scale(1,1)"><g><path fill="none" stroke="none"/><text fill="#000000" stroke="none" font-family="Arial" font-size="13px" font-style="normal" font-weight="bold" text-decoration="none" x="344.621337890625" y="259.5">Postulant</text></g></g><g transform="translate(-22,2) scale(1,1)"><g><path fill="none" stroke="none"/><text fill="#000000" stroke="none" font-family="Arial" font-size="13px" font-style="normal" font-weight="normal" text-decoration="none" x="309" y="282.5">-nationalité: String</text></g></g><g transform="translate(-22,2) scale(1,1)"><rect fill="#C0C0C0" stroke="none" x="271" y="455" width="136.92431640625" height="72" opacity="0.2"/></g><g transform="translate(-22,2) scale(1,1)"><rect fill="#ffffff" stroke="none" x="264" y="448" width="136.92431640625" height="72"/></g><g transform="translate(-22,2) scale(1,1)"><path fill="none" stroke="#000000" d="M 264 448 L 400.92431640625 448 L 400.92431640625 520 L 264 520 L 264 448 Z Z" stroke-miterlimit="10"/></g><g transform="translate(-22,2) scale(1,1)"><path fill="none" stroke="#000000" d="M 264 473 L 400.92431640625 473" stroke-miterlimit="10"/></g><g transform="translate(-22,2) scale(1,1)"><path fill="none" stroke="#000000" d="M 264 511 L 400.92431640625 511" stroke-miterlimit="10"/></g><g transform="translate(-22,2) scale(1,1)"><g><path fill="none" stroke="none"/><text fill="#000000" stroke="none" font-family="Arial" font-size="13px" font-style="normal" font-weight="bold" text-decoration="none" x="303.20263671875" y="467.5">Formation</text></g></g><g transform="translate(-22,2) scale(1,1)"><g><path fill="none" stroke="none"/><text fill="#000000" stroke="none" font-family="Arial" font-size="13px" font-style="normal" font-weight="normal" text-decoration="none" x="269" y="490.5">-niveau {unique}</text></g></g><g transform="translate(-22,2) scale(1,1)"><g><path fill="none" stroke="none"/><text fill="#000000" stroke="none" font-family="Arial" font-size="13px" font-style="normal" font-weight="normal" text-decoration="none" x="269" y="505.5">-domaine: Sting</text></g></g><g transform="translate(-22,2) scale(1,1)"><rect fill="#C0C0C0" stroke="none" x="39" y="255" width="136.91162109375" height="87" opacity="0.2"/></g><g transform="translate(-22,2) scale(1,1)"><rect fill="#ffffff" stroke="none" x="32" y="248" width="136.91162109375" height="87"/></g><g transform="translate(-22,2) scale(1,1)"><path fill="none" stroke="#000000" d="M 32 248 L 168.91162109375 248 L 168.91162109375 335 L 32 335 L 32 248 Z Z" stroke-miterlimit="10"/></g><g transform="translate(-22,2) scale(1,1)"><path fill="none" stroke="#000000" d="M 32 273 L 168.91162109375 273" stroke-miterlimit="10"/></g><g transform="translate(-22,2) scale(1,1)"><path fill="none" stroke="#000000" d="M 32 326 L 168.91162109375 326" stroke-miterlimit="10"/></g><g transform="translate(-22,2) scale(1,1)"><g><path fill="none" stroke="none"/><text fill="#000000" stroke="none" font-family="Arial" font-size="13px" font-style="normal" font-weight="bold" text-decoration="none" x="77.6962890625" y="267.5">Compte</text></g></g><g transform="translate(-22,2) scale(1,1)"><g><path fill="none" stroke="none"/><text fill="#000000" stroke="none" font-family="Arial" font-size="13px" font-style="normal" font-weight="normal" text-decoration="none" x="37" y="290.5">-email: String {unique}</text></g></g><g transform="translate(-22,2) scale(1,1)"><g><path fill="none" stroke="none"/><text fill="#000000" stroke="none" font-family="Arial" font-size="13px" font-style="normal" font-weight="normal" text-decoration="none" x="37" y="305.5">-password: String</text></g></g><g transform="translate(-22,2) scale(1,1)"><g><path fill="none" stroke="none"/><text fill="#000000" stroke="none" font-family="Arial" font-size="13px" font-style="normal" font-weight="normal" text-decoration="none" x="37" y="320.5">-numTel: String</text></g></g><g transform="translate(-22,2) scale(1,1)"><rect fill="#C0C0C0" stroke="none" x="335" y="15" width="68.24267578125" height="44" opacity="0.2"/></g><g transform="translate(-22,2) scale(1,1)"><rect fill="#ffffff" stroke="none" x="328" y="8" width="68.24267578125" height="44"/></g><g transform="translate(-22,2) scale(1,1)"><path fill="none" stroke="#000000" d="M 328 8 L 396.24267578125 8 L 396.24267578125 52 L 328 52 L 328 8 Z Z" stroke-miterlimit="10"/></g><g transform="translate(-22,2) scale(1,1)"><path fill="none" stroke="#000000" d="M 328 33 L 396.24267578125 33" stroke-miterlimit="10"/></g><g transform="translate(-22,2) scale(1,1)"><path fill="none" stroke="#000000" d="M 328 43 L 396.24267578125 43" stroke-miterlimit="10"/></g><g transform="translate(-22,2) scale(1,1)"><g><path fill="none" stroke="none"/><text fill="#000000" stroke="none" font-family="Arial" font-size="13px" font-style="normal" font-weight="bold" text-decoration="none" x="334.29638671875" y="27.5">Personne</text></g></g><g transform="translate(-22,2) scale(1,1)"><rect fill="#C0C0C0" stroke="none" x="703" y="319" width="86.3017578125" height="44" opacity="0.2"/></g><g transform="translate(-22,2) scale(1,1)"><rect fill="#ffffff" stroke="none" x="696" y="312" width="86.3017578125" height="44"/></g><g transform="translate(-22,2) scale(1,1)"><path fill="none" stroke="#000000" d="M 696 312 L 782.3017578125 312 L 782.3017578125 356 L 696 356 L 696 312 Z Z" stroke-miterlimit="10"/></g><g transform="translate(-22,2) scale(1,1)"><path fill="none" stroke="#000000" d="M 696 337 L 782.3017578125 337" stroke-miterlimit="10"/></g><g transform="translate(-22,2) scale(1,1)"><path fill="none" stroke="#000000" d="M 696 347 L 782.3017578125 347" stroke-miterlimit="10"/></g><g transform="translate(-22,2) scale(1,1)"><g><path fill="none" stroke="none"/><text fill="#000000" stroke="none" font-family="Arial" font-size="13px" font-style="normal" font-weight="bold" text-decoration="none" x="703.016845703125" y="331.5">Académique</text></g></g><g transform="translate(-22,2) scale(1,1)"><path fill="none" stroke="#000000" d="M 364 240 L 364 52" stroke-miterlimit="10"/></g><g transform="translate(-22,2) scale(1,1)"><path fill="#FFFFFF" stroke="none" d="M 372.419035512032 72.32534971524831 L 364 52 L 355.580964487968 72.32534971524831"/></g><g transform="translate(-22,2) scale(1,1)"><path fill="none" stroke="#000000" d="M 372.419035512032 72.32534971524831 L 364 52 L 355.580964487968 72.32534971524831 L 372.419035512032 72.32534971524831" stroke-miterlimit="10"/></g><g transform="translate(-22,2) scale(1,1)"><path fill="none" stroke="#000000" d="M 304 280 L 169 280" stroke-miterlimit="10"/></g><g transform="translate(-22,2) scale(1,1)"><g><path fill="none" stroke="none"/><text fill="#000000" stroke="none" font-family="Arial" font-size="13px" font-style="normal" font-weight="normal" text-decoration="none" x="204.5" y="301.5">+posséder</text></g></g><g transform="translate(-22,2) scale(1,1)"><g><path fill="none" stroke="none"/><text fill="#000000" stroke="none" font-family="Arial" font-size="13px" font-style="normal" font-weight="normal" text-decoration="none" x="278.5" y="273.5">1</text></g></g><g transform="translate(-22,2) scale(1,1)"><g><path fill="none" stroke="none"/><text fill="#000000" stroke="none" font-family="Arial" font-size="13px" font-style="normal" font-weight="normal" text-decoration="none" x="186.5" y="273.5">1</text></g></g><g transform="translate(-22,2) scale(1,1)"><path fill="#C0C0C0" stroke="none" d="M 574.7099609375 362.5 C 574.7099609375 356.1487248 579.8586857375 351 586.2099609375 351 C 592.5612361375 351 597.7099609375 356.1487248 597.7099609375 362.5 C 597.7099609375 368.8512752 592.5612361375 374 586.2099609375 374 C 579.8586857375 374 574.7099609375 368.8512752 574.7099609375 362.5 Z" opacity="0.2"/></g><g transform="translate(-22,2) scale(1,1)"><path fill="#ffffff" stroke="none" d="M 567.7099609375 355.5 C 567.7099609375 349.1487248 572.8586857375 344 579.2099609375 344 C 585.5612361375 344 590.7099609375 349.1487248 590.7099609375 355.5 C 590.7099609375 361.8512752 585.5612361375 367 579.2099609375 367 C 572.8586857375 367 567.7099609375 361.8512752 567.7099609375 355.5 Z"/></g><g transform="translate(-22,2) scale(1,1)"><path fill="none" stroke="#000000" d="M 567.7099609375 355.5 C 567.7099609375 349.1487248 572.8586857375 344 579.2099609375 344 C 585.5612361375 344 590.7099609375 349.1487248 590.7099609375 355.5 C 590.7099609375 361.8512752 585.5612361375 367 579.2099609375 367 C 572.8586857375 367 567.7099609375 361.8512752 567.7099609375 355.5 Z" stroke-miterlimit="10"/></g><g transform="translate(-22,2) scale(1,1)"><g><path fill="none" stroke="none"/><text fill="#000000" stroke="none" font-family="Arial" font-size="13px" font-style="normal" font-weight="bold" text-decoration="none" x="553.200439453125" y="386.5">Parcours</text></g></g><g transform="translate(-22,2) scale(1,1)"><rect fill="#C0C0C0" stroke="none" x="559" y="71" width="121.00439453125" height="132" opacity="0.2"/></g><g transform="translate(-22,2) scale(1,1)"><rect fill="#ffffff" stroke="none" x="552" y="64" width="121.00439453125" height="132"/></g><g transform="translate(-22,2) scale(1,1)"><path fill="none" stroke="#000000" d="M 552 64 L 673.00439453125 64 L 673.00439453125 196 L 552 196 L 552 64 Z Z" stroke-miterlimit="10"/></g><g transform="translate(-22,2) scale(1,1)"><path fill="none" stroke="#000000" d="M 552 89 L 673.00439453125 89" stroke-miterlimit="10"/></g><g transform="translate(-22,2) scale(1,1)"><path fill="none" stroke="#000000" d="M 552 187 L 673.00439453125 187" stroke-miterlimit="10"/></g><g transform="translate(-22,2) scale(1,1)"><g><path fill="none" stroke="none"/><text fill="#000000" stroke="none" font-family="Arial" font-size="13px" font-style="normal" font-weight="bold" text-decoration="none" x="573.4736328125" y="83.5">Coordonnées</text></g></g><g transform="translate(-22,2) scale(1,1)"><g><path fill="none" stroke="none"/><text fill="#000000" stroke="none" font-family="Arial" font-size="13px" font-style="normal" font-weight="normal" text-decoration="none" x="557" y="106.5">-adresse: String</text></g></g><g transform="translate(-22,2) scale(1,1)"><g><path fill="none" stroke="none"/><text fill="#000000" stroke="none" font-family="Arial" font-size="13px" font-style="normal" font-weight="normal" text-decoration="none" x="557" y="121.5">-code postal: String</text></g></g><g transform="translate(-22,2) scale(1,1)"><g><path fill="none" stroke="none"/><text fill="#000000" stroke="none" font-family="Arial" font-size="13px" font-style="normal" font-weight="normal" text-decoration="none" x="557" y="136.5">-province: String</text></g></g><g transform="translate(-22,2) scale(1,1)"><g><path fill="none" stroke="none"/><text fill="#000000" stroke="none" font-family="Arial" font-size="13px" font-style="normal" font-weight="normal" text-decoration="none" x="557" y="151.5">-région: String</text></g></g><g transform="translate(-22,2) scale(1,1)"><g><path fill="none" stroke="none"/><text fill="#000000" stroke="none" font-family="Arial" font-size="13px" font-style="normal" font-weight="normal" text-decoration="none" x="557" y="166.5">-pays: String</text></g></g><g transform="translate(-22,2) scale(1,1)"><g><path fill="none" stroke="none"/><text fill="#000000" stroke="none" font-family="Arial" font-size="13px" font-style="normal" font-weight="normal" text-decoration="none" x="557" y="181.5">-ville: String</text></g></g><g transform="translate(-22,2) scale(1,1)"><rect fill="#C0C0C0" stroke="none" x="855" y="367" width="108.70263671875" height="102" opacity="0.2"/></g><g transform="translate(-22,2) scale(1,1)"><rect fill="#ffffff" stroke="none" x="848" y="360" width="108.70263671875" height="102"/></g><g transform="translate(-22,2) scale(1,1)"><path fill="none" stroke="#000000" d="M 848 360 L 956.70263671875 360 L 956.70263671875 462 L 848 462 L 848 360 Z Z" stroke-miterlimit="10"/></g><g transform="translate(-22,2) scale(1,1)"><path fill="none" stroke="#000000" d="M 848 385 L 956.70263671875 385" stroke-miterlimit="10"/></g><g transform="translate(-22,2) scale(1,1)"><path fill="none" stroke="#000000" d="M 848 453 L 956.70263671875 453" stroke-miterlimit="10"/></g><g transform="translate(-22,2) scale(1,1)"><g><path fill="none" stroke="none"/><text fill="#000000" stroke="none" font-family="Arial" font-size="13px" font-style="normal" font-weight="bold" text-decoration="none" x="873.45361328125" y="379.5">Université</text></g></g><g transform="translate(-22,2) scale(1,1)"><g><path fill="none" stroke="none"/><text fill="#000000" stroke="none" font-family="Arial" font-size="13px" font-style="normal" font-weight="normal" text-decoration="none" x="853" y="402.5">-formation: String</text></g></g><g transform="translate(-22,2) scale(1,1)"><g><path fill="none" stroke="none"/><text fill="#000000" stroke="none" font-family="Arial" font-size="13px" font-style="normal" font-weight="normal" text-decoration="none" x="853" y="417.5">-niveau: String</text></g></g><g transform="translate(-22,2) scale(1,1)"><g><path fill="none" stroke="none"/><text fill="#000000" stroke="none" font-family="Arial" font-size="13px" font-style="normal" font-weight="normal" text-decoration="none" x="853" y="432.5">-note: String</text></g></g><g transform="translate(-22,2) scale(1,1)"><g><path fill="none" stroke="none"/><text fill="#000000" stroke="none" font-family="Arial" font-size="13px" font-style="normal" font-weight="normal" text-decoration="none" x="853" y="447.5">-cycle: String</text></g></g><g transform="translate(-22,2) scale(1,1)"><rect fill="#C0C0C0" stroke="none" x="839" y="175" width="134.7216796875" height="87" opacity="0.2"/></g><g transform="translate(-22,2) scale(1,1)"><rect fill="#ffffff" stroke="none" x="832" y="168" width="134.7216796875" height="87"/></g><g transform="translate(-22,2) scale(1,1)"><path fill="none" stroke="#000000" d="M 832 168 L 966.7216796875 168 L 966.7216796875 255 L 832 255 L 832 168 Z Z" stroke-miterlimit="10"/></g><g transform="translate(-22,2) scale(1,1)"><path fill="none" stroke="#000000" d="M 832 193 L 966.7216796875 193" stroke-miterlimit="10"/></g><g transform="translate(-22,2) scale(1,1)"><path fill="none" stroke="#000000" d="M 832 246 L 966.7216796875 246" stroke-miterlimit="10"/></g><g transform="translate(-22,2) scale(1,1)"><g><path fill="none" stroke="none"/><text fill="#000000" stroke="none" font-family="Arial" font-size="13px" font-style="normal" font-weight="bold" text-decoration="none" x="858.167724609375" y="187.5">Lycée Collège</text></g></g><g transform="translate(-22,2) scale(1,1)"><g><path fill="none" stroke="none"/><text fill="#000000" stroke="none" font-family="Arial" font-size="13px" font-style="normal" font-weight="normal" text-decoration="none" x="837" y="210.5">-établissement: String</text></g></g><g transform="translate(-22,2) scale(1,1)"><g><path fill="none" stroke="none"/><text fill="#000000" stroke="none" font-family="Arial" font-size="13px" font-style="normal" font-weight="normal" text-decoration="none" x="837" y="225.5">-classe: String</text></g></g><g transform="translate(-22,2) scale(1,1)"><g><path fill="none" stroke="none"/><text fill="#000000" stroke="none" font-family="Arial" font-size="13px" font-style="normal" font-weight="normal" text-decoration="none" x="837" y="240.5">-moyenne: double</text></g></g><g transform="translate(-22,2) scale(1,1)"><path fill="none" stroke="#000000" d="M 439 272 L 608 272 L 608 196" stroke-miterlimit="10"/></g><g transform="translate(-22,2) scale(1,1)"><g><path fill="none" stroke="none"/><text fill="#000000" stroke="none" font-family="Arial" font-size="13px" font-style="normal" font-weight="normal" text-decoration="none" x="550.5" y="260.5">+avoir</text></g></g><g transform="translate(-22,2) scale(1,1)"><g><path fill="none" stroke="none"/><text fill="#000000" stroke="none" font-family="Arial" font-size="13px" font-style="normal" font-weight="normal" text-decoration="none" x="456.5" y="290.5">1</text></g></g><g transform="translate(-22,2) scale(1,1)"><g><path fill="none" stroke="none"/><text fill="#000000" stroke="none" font-family="Arial" font-size="13px" font-style="normal" font-weight="normal" text-decoration="none" x="616.5" y="223.5">1</text></g></g><g transform="translate(-22,2) scale(1,1)"><rect fill="#C0C0C0" stroke="none" x="647" y="503" width="130.38623046875" height="87" opacity="0.2"/></g><g transform="translate(-22,2) scale(1,1)"><rect fill="#ffffff" stroke="none" x="640" y="496" width="130.38623046875" height="87"/></g><g transform="translate(-22,2) scale(1,1)"><path fill="none" stroke="#000000" d="M 640 496 L 770.38623046875 496 L 770.38623046875 583 L 640 583 L 640 496 Z Z" stroke-miterlimit="10"/></g><g transform="translate(-22,2) scale(1,1)"><path fill="none" stroke="#000000" d="M 640 521 L 770.38623046875 521" stroke-miterlimit="10"/></g><g transform="translate(-22,2) scale(1,1)"><path fill="none" stroke="#000000" d="M 640 574 L 770.38623046875 574" stroke-miterlimit="10"/></g><g transform="translate(-22,2) scale(1,1)"><g><path fill="none" stroke="none"/><text fill="#000000" stroke="none" font-family="Arial" font-size="13px" font-style="normal" font-weight="bold" text-decoration="none" x="689.6572265625" y="515.5">Autre</text></g></g><g transform="translate(-22,2) scale(1,1)"><g><path fill="none" stroke="none"/><text fill="#000000" stroke="none" font-family="Arial" font-size="13px" font-style="normal" font-weight="normal" text-decoration="none" x="645" y="538.5">-type dactivité: String</text></g></g><g transform="translate(-22,2) scale(1,1)"><g><path fill="none" stroke="none"/><text fill="#000000" stroke="none" font-family="Arial" font-size="13px" font-style="normal" font-weight="normal" text-decoration="none" x="645" y="553.5">-lieu: String</text></g></g><g transform="translate(-22,2) scale(1,1)"><g><path fill="none" stroke="none"/><text fill="#000000" stroke="none" font-family="Arial" font-size="13px" font-style="normal" font-weight="normal" text-decoration="none" x="645" y="568.5">-période: String</text></g></g><g transform="translate(-22,2) scale(1,1)"><rect fill="#C0C0C0" stroke="none" x="471" y="471" width="115.208984375" height="87" opacity="0.2"/></g><g transform="translate(-22,2) scale(1,1)"><rect fill="#ffffff" stroke="none" x="464" y="464" width="115.208984375" height="87"/></g><g transform="translate(-22,2) scale(1,1)"><path fill="none" stroke="#000000" d="M 464 464 L 579.208984375 464 L 579.208984375 551 L 464 551 L 464 464 Z Z" stroke-miterlimit="10"/></g><g transform="translate(-22,2) scale(1,1)"><path fill="none" stroke="#000000" d="M 464 489 L 579.208984375 489" stroke-miterlimit="10"/></g><g transform="translate(-22,2) scale(1,1)"><path fill="none" stroke="#000000" d="M 464 542 L 579.208984375 542" stroke-miterlimit="10"/></g><g transform="translate(-22,2) scale(1,1)"><g><path fill="none" stroke="none"/><text fill="#000000" stroke="none" font-family="Arial" font-size="13px" font-style="normal" font-weight="bold" text-decoration="none" x="482.220458984375" y="483.5">Professionnel</text></g></g><g transform="translate(-22,2) scale(1,1)"><g><path fill="none" stroke="none"/><text fill="#000000" stroke="none" font-family="Arial" font-size="13px" font-style="normal" font-weight="normal" text-decoration="none" x="469" y="506.5">-employeur: String</text></g></g><g transform="translate(-22,2) scale(1,1)"><g><path fill="none" stroke="none"/><text fill="#000000" stroke="none" font-family="Arial" font-size="13px" font-style="normal" font-weight="normal" text-decoration="none" x="469" y="521.5">-poste: String</text></g></g><g transform="translate(-22,2) scale(1,1)"><g><path fill="none" stroke="none"/><text fill="#000000" stroke="none" font-family="Arial" font-size="13px" font-style="normal" font-weight="normal" text-decoration="none" x="469" y="536.5">-période: String</text></g></g><g transform="translate(-22,2) scale(1,1)"><rect fill="#C0C0C0" stroke="none" x="63" y="455" width="88.46630859375" height="44" opacity="0.2"/></g><g transform="translate(-22,2) scale(1,1)"><rect fill="#ffffff" stroke="none" x="56" y="448" width="88.46630859375" height="44"/></g><g transform="translate(-22,2) scale(1,1)"><path fill="none" stroke="#000000" d="M 56 448 L 144.46630859375 448 L 144.46630859375 492 L 56 492 L 56 448 Z Z" stroke-miterlimit="10"/></g><g transform="translate(-22,2) scale(1,1)"><path fill="none" stroke="#000000" d="M 56 473 L 144.46630859375 473" stroke-miterlimit="10"/></g><g transform="translate(-22,2) scale(1,1)"><path fill="none" stroke="#000000" d="M 56 483 L 144.46630859375 483" stroke-miterlimit="10"/></g><g transform="translate(-22,2) scale(1,1)"><g><path fill="none" stroke="none"/><text fill="#000000" stroke="none" font-family="Arial" font-size="13px" font-style="normal" font-weight="bold" text-decoration="none" x="62.658203125" y="467.5">Département</text></g></g><g transform="translate(-22,2) scale(1,1)"><rect fill="#C0C0C0" stroke="none" x="79" y="623" width="50.919921875" height="44" opacity="0.2"/></g><g transform="translate(-22,2) scale(1,1)"><rect fill="#ffffff" stroke="none" x="72" y="616" width="50.919921875" height="44"/></g><g transform="translate(-22,2) scale(1,1)"><path fill="none" stroke="#000000" d="M 72 616 L 122.919921875 616 L 122.919921875 660 L 72 660 L 72 616 Z Z" stroke-miterlimit="10"/></g><g transform="translate(-22,2) scale(1,1)"><path fill="none" stroke="#000000" d="M 72 641 L 122.919921875 641" stroke-miterlimit="10"/></g><g transform="translate(-22,2) scale(1,1)"><path fill="none" stroke="#000000" d="M 72 651 L 122.919921875 651" stroke-miterlimit="10"/></g><g transform="translate(-22,2) scale(1,1)"><g><path fill="none" stroke="none"/><text fill="#000000" stroke="none" font-family="Arial" font-size="13px" font-style="normal" font-weight="bold" text-decoration="none" x="84.101318359375" y="635.5">UFR</text></g></g><g transform="translate(-22,2) scale(1,1)"><path fill="none" stroke="#000000" d="M 144 480 L 264 480" stroke-miterlimit="10"/></g><g transform="translate(-22,2) scale(1,1)"><g><path fill="none" stroke="none"/><text fill="#000000" stroke="none" font-family="Arial" font-size="13px" font-style="normal" font-weight="normal" text-decoration="none" x="179.5" y="471.5">+donner</text></g></g><g transform="translate(-22,2) scale(1,1)"><g><path fill="none" stroke="none"/><text fill="#000000" stroke="none" font-family="Arial" font-size="13px" font-style="normal" font-weight="normal" text-decoration="none" x="161.5" y="498.5">1</text></g></g><g transform="translate(-22,2) scale(1,1)"><g><path fill="none" stroke="none"/><text fill="#000000" stroke="none" font-family="Arial" font-size="13px" font-style="normal" font-weight="normal" text-decoration="none" x="232.5" y="498.5">1..*</text></g></g><g transform="translate(-22,2) scale(1,1)"><path fill="none" stroke="#000000" d="M 106 492 L 106 616" stroke-miterlimit="10"/></g><g transform="translate(-22,2) scale(1,1)"><path fill="#000000" stroke="none" d="M 101.79048224398402 605.8373251423759 L 106 616 L 110.20951775601598 605.8373251423759 L 106 594"/></g><g transform="translate(-22,2) scale(1,1)"><path fill="none" stroke="#000000" d="M 101.79048224398402 605.8373251423759 L 106 616 L 110.20951775601598 605.8373251423759 L 106 594 L 101.79048224398402 605.8373251423759" stroke-miterlimit="10"/></g><g transform="translate(-22,2) scale(1,1)"><g><path fill="none" stroke="none"/><text fill="#000000" stroke="none" font-family="Arial" font-size="13px" font-style="normal" font-weight="normal" text-decoration="none" x="125.5" y="568.5">+composer</text></g></g><g transform="translate(-22,2) scale(1,1)"><rect fill="#C0C0C0" stroke="none" x="87" y="55" width="172.30615234375" height="117" opacity="0.2"/></g><g transform="translate(-22,2) scale(1,1)"><rect fill="#ffffff" stroke="none" x="80" y="48" width="172.30615234375" height="117"/></g><g transform="translate(-22,2) scale(1,1)"><path fill="none" stroke="#000000" d="M 80 48 L 252.30615234375 48 L 252.30615234375 165 L 80 165 L 80 48 Z Z" stroke-miterlimit="10"/></g><g transform="translate(-22,2) scale(1,1)"><path fill="none" stroke="#000000" d="M 80 73 L 252.30615234375 73" stroke-miterlimit="10"/></g><g transform="translate(-22,2) scale(1,1)"><path fill="none" stroke="#000000" d="M 80 156 L 252.30615234375 156" stroke-miterlimit="10"/></g><g transform="translate(-22,2) scale(1,1)"><g><path fill="none" stroke="none"/><text fill="#000000" stroke="none" font-family="Arial" font-size="13px" font-style="normal" font-weight="bold" text-decoration="none" x="123.15087890625" y="67.5">Pièce dIdentité</text></g></g><g transform="translate(-22,2) scale(1,1)"><g><path fill="none" stroke="none"/><text fill="#000000" stroke="none" font-family="Arial" font-size="13px" font-style="normal" font-weight="normal" text-decoration="none" x="85" y="90.5">-numéro: String</text></g></g><g transform="translate(-22,2) scale(1,1)"><g><path fill="none" stroke="none"/><text fill="#000000" stroke="none" font-family="Arial" font-size="13px" font-style="normal" font-weight="normal" text-decoration="none" x="85" y="105.5">-type: String</text></g></g><g transform="translate(-22,2) scale(1,1)"><g><path fill="none" stroke="none"/><text fill="#000000" stroke="none" font-family="Arial" font-size="13px" font-style="normal" font-weight="normal" text-decoration="none" x="85" y="120.5">-date dEtablissement: date</text></g></g><g transform="translate(-22,2) scale(1,1)"><g><path fill="none" stroke="none"/><text fill="#000000" stroke="none" font-family="Arial" font-size="13px" font-style="normal" font-weight="normal" text-decoration="none" x="85" y="135.5">-date dExpiration: date</text></g></g><g transform="translate(-22,2) scale(1,1)"><g><path fill="none" stroke="none"/><text fill="#000000" stroke="none" font-family="Arial" font-size="13px" font-style="normal" font-weight="normal" text-decoration="none" x="85" y="150.5">-lieu dEtablissement: String</text></g></g><g transform="translate(-22,2) scale(1,1)"><path fill="none" stroke="#000000" d="M 320 240 L 320 120 L 252 120" stroke-miterlimit="10"/></g><g transform="translate(-22,2) scale(1,1)"><g><path fill="none" stroke="none"/><text fill="#000000" stroke="none" font-family="Arial" font-size="13px" font-style="normal" font-weight="normal" text-decoration="none" x="247.5" y="196.5">+posséder</text></g></g><g transform="translate(-22,2) scale(1,1)"><path fill="none" stroke="#000000" d="M 539 463 L 569 393" stroke-miterlimit="10"/></g><g transform="translate(-22,2) scale(1,1)"><path fill="#FFFFFF" stroke="none" d="M 568.8658835726114 403.99918236888107 L 569 393 L 561.1275689241817 400.68276180526834 L 560.3337754312583 413.22119066039727"/></g><g transform="translate(-22,2) scale(1,1)"><path fill="none" stroke="#000000" d="M 568.8658835726114 403.99918236888107 L 569 393 L 561.1275689241817 400.68276180526834 L 560.3337754312583 413.22119066039727 L 568.8658835726114 403.99918236888107" stroke-miterlimit="10"/></g><g transform="translate(-22,2) scale(1,1)"><path fill="none" stroke="#000000" d="M 695 343 L 615 360" stroke-miterlimit="10"/></g><g transform="translate(-22,2) scale(1,1)"><path fill="#FFFFFF" stroke="none" d="M 624.0657252376176 353.7700219971477 L 615 360 L 625.8156954843533 362.0051760994335 L 636.5194947201928 355.42710737195904"/></g><g transform="translate(-22,2) scale(1,1)"><path fill="none" stroke="#000000" d="M 624.0657252376176 353.7700219971477 L 615 360 L 625.8156954843533 362.0051760994335 L 636.5194947201928 355.42710737195904 L 624.0657252376176 353.7700219971477" stroke-miterlimit="10"/></g><g transform="translate(-22,2) scale(1,1)"><path fill="none" stroke="#000000" d="M 673 495 L 597 393" stroke-miterlimit="10"/></g><g transform="translate(-22,2) scale(1,1)"><path fill="#FFFFFF" stroke="none" d="M 606.4475484155142 398.6341662148463 L 597 393 L 599.6964684133484 403.66438268704826 L 610.1445890957805 410.64142220749477"/></g><g transform="translate(-22,2) scale(1,1)"><path fill="none" stroke="#000000" d="M 606.4475484155142 398.6341662148463 L 597 393 L 599.6964684133484 403.66438268704826 L 610.1445890957805 410.64142220749477 L 606.4475484155142 398.6341662148463" stroke-miterlimit="10"/></g><g transform="translate(-22,2) scale(1,1)"><path fill="none" stroke="#000000" d="M 840 256 L 769 311" stroke-miterlimit="10"/></g><g transform="translate(-22,2) scale(1,1)"><path fill="#000000" stroke="none" d="M 774.4562015326862 301.4485673935942 L 769 311 L 779.6119998693188 308.104234337247 L 786.3920958702575 297.52724967796956"/></g><g transform="translate(-22,2) scale(1,1)"><path fill="none" stroke="#000000" d="M 774.4562015326862 301.4485673935942 L 769 311 L 779.6119998693188 308.104234337247 L 786.3920958702575 297.52724967796956 L 774.4562015326862 301.4485673935942" stroke-miterlimit="10"/></g><g transform="translate(-22,2) scale(1,1)"><path fill="none" stroke="#000000" d="M 847 385 L 783 355" stroke-miterlimit="10"/></g><g transform="translate(-22,2) scale(1,1)"><path fill="#000000" stroke="none" d="M 793.9885467013282 355.5018380144317 L 783 355 L 790.4152228248324 363.1249289509561 L 802.9200965910951 364.33754527707583"/></g><g transform="translate(-22,2) scale(1,1)"><path fill="none" stroke="#000000" d="M 793.9885467013282 355.5018380144317 L 783 355 L 790.4152228248324 363.1249289509561 L 802.9200965910951 364.33754527707583 L 793.9885467013282 355.5018380144317" stroke-miterlimit="10"/></g><g transform="translate(-22,2) scale(1,1)"><path fill="none" stroke="#000000" d="M 433 298 L 543 351" stroke-miterlimit="10"/></g><g transform="translate(-22,2) scale(1,1)"><g><path fill="none" stroke="none"/><text fill="#000000" stroke="none" font-family="Arial" font-size="13px" font-style="normal" font-weight="normal" text-decoration="none" x="476.5" y="316.5">+avoir</text></g></g><g transform="translate(-22,2) scale(1,1)"><g><path fill="none" stroke="none"/><text fill="#000000" stroke="none" font-family="Arial" font-size="13px" font-style="normal" font-weight="normal" text-decoration="none" x="443.5" y="324.5">1</text></g></g><g transform="translate(-22,2) scale(1,1)"><g><path fill="none" stroke="none"/><text fill="#000000" stroke="none" font-family="Arial" font-size="13px" font-style="normal" font-weight="normal" text-decoration="none" x="514.5" y="358.5">1</text></g></g></g></svg>