<svg version="1.1" xmlns="http://www.w3.org/2000/svg" xmlns:xlink="http://www.w3.org/1999/xlink" width="788" height="740"><defs/><g><g transform="translate(-14,-38) scale(1,1)"><rect fill="#C0C0C0" stroke="none" x="215" y="55" width="584" height="720" opacity="0.2"/></g><g transform="translate(-14,-38) scale(1,1)"><rect fill="#ffffff" stroke="none" x="208" y="48" width="584" height="720"/></g><g transform="translate(-14,-38) scale(1,1)"><path fill="none" stroke="#000000" d="M 208 48 L 792 48 L 792 768 L 208 768 L 208 48 Z Z" stroke-miterlimit="10"/></g><g transform="translate(-14,-38) scale(1,1)"><g><path fill="none" stroke="none"/><text fill="#000000" stroke="none" font-family="Arial" font-size="13px" font-style="normal" font-weight="bold" text-decoration="none" x="413.287841796875" y="67.5">Dépot des cadidatures Master</text></g></g><g transform="translate(-14,-38) scale(1,1)"><path fill="#ffffff" stroke="none" d="M 121.43254367897728 233.68 C 121.43254367897728 228.886167936 125.31838600392274 225 130.11181640625 225 C 134.90524680857726 225 138.79108913352272 228.886167936 138.79108913352272 233.68 C 138.79108913352272 238.47383206400002 134.90524680857726 242.36 130.11181640625 242.36 C 125.31838600392274 242.36 121.43254367897728 238.47383206400002 121.43254367897728 233.68 Z"/></g><g transform="translate(-14,-38) scale(1,1)"><path fill="none" stroke="#000000" d="M 121.43254367897728 233.68 C 121.43254367897728 228.886167936 125.31838600392274 225 130.11181640625 225 C 134.90524680857726 225 138.79108913352272 228.886167936 138.79108913352272 233.68 C 138.79108913352272 238.47383206400002 134.90524680857726 242.36 130.11181640625 242.36 C 125.31838600392274 242.36 121.43254367897728 238.47383206400002 121.43254367897728 233.68 Z" stroke-miterlimit="10"/></g><g transform="translate(-14,-38) scale(1,1)"><path fill="none" stroke="#000000" d="M 130.11181640625 242.36 L 130.11181640625 259.64" stroke-miterlimit="10"/></g><g transform="translate(-14,-38) scale(1,1)"><path fill="none" stroke="#000000" d="M 120.92199822443183 248.84 L 139.30163458806817 248.84" stroke-miterlimit="10"/></g><g transform="translate(-14,-38) scale(1,1)"><path fill="none" stroke="#000000" d="M 130.11181640625 259.64 L 117.34818004261365 277" stroke-miterlimit="10"/></g><g transform="translate(-14,-38) scale(1,1)"><path fill="none" stroke="#000000" d="M 130.11181640625 259.64 L 142.87545276988635 277" stroke-miterlimit="10"/></g><g transform="translate(-14,-38) scale(1,1)"><g><path fill="none" stroke="none"/><text fill="#000000" stroke="none" font-family="Arial" font-size="13px" font-style="normal" font-weight="bold" text-decoration="none" x="103.010498046875" y="297.5">Postulant</text></g></g><g transform="translate(-14,-38) scale(1,1)"><path fill="#C0C0C0" stroke="none" d="M 263 192 C 263 182.6111584 285.6096176 175 313.5 175 C 341.3903824 175 364 182.6111584 364 192 C 364 201.3888416 341.3903824 209 313.5 209 C 285.6096176 209 263 201.3888416 263 192 Z" opacity="0.2"/></g><g transform="translate(-14,-38) scale(1,1)"><path fill="#ffffff" stroke="none" d="M 256 185 C 256 175.6111584 278.6096176 168 306.5 168 C 334.3903824 168 357 175.6111584 357 185 C 357 194.3888416 334.3903824 202 306.5 202 C 278.6096176 202 256 194.3888416 256 185 Z"/></g><g transform="translate(-14,-38) scale(1,1)"><path fill="none" stroke="#000000" d="M 256 185 C 256 175.6111584 278.6096176 168 306.5 168 C 334.3903824 168 357 175.6111584 357 185 C 357 194.3888416 334.3903824 202 306.5 202 C 278.6096176 202 256 194.3888416 256 185 Z" stroke-miterlimit="10"/></g><g transform="translate(-14,-38) scale(1,1)"><g><path fill="none" stroke="none"/><text fill="#000000" stroke="none" font-family="Arial" font-size="13px" font-style="normal" font-weight="bold" text-decoration="none" x="279.976318359375" y="192">S'inscrire</text></g></g><g transform="translate(-14,-38) scale(1,1)"><path fill="#C0C0C0" stroke="none" d="M 575 328 C 575 318.6111584 603.8776304 311 639.5 311 C 675.1223696 311 704 318.6111584 704 328 C 704 337.3888416 675.1223696 345 639.5 345 C 603.8776304 345 575 337.3888416 575 328 Z" opacity="0.2"/></g><g transform="translate(-14,-38) scale(1,1)"><path fill="#ffffff" stroke="none" d="M 568 321 C 568 311.6111584 596.8776304 304 632.5 304 C 668.1223696 304 697 311.6111584 697 321 C 697 330.3888416 668.1223696 338 632.5 338 C 596.8776304 338 568 330.3888416 568 321 Z"/></g><g transform="translate(-14,-38) scale(1,1)"><path fill="none" stroke="#000000" d="M 568 321 C 568 311.6111584 596.8776304 304 632.5 304 C 668.1223696 304 697 311.6111584 697 321 C 697 330.3888416 668.1223696 338 632.5 338 C 596.8776304 338 568 330.3888416 568 321 Z" stroke-miterlimit="10"/></g><g transform="translate(-14,-38) scale(1,1)"><g><path fill="none" stroke="none"/><text fill="#000000" stroke="none" font-family="Arial" font-size="13px" font-style="normal" font-weight="bold" text-decoration="none" x="594.76318359375" y="328">S'authentifier</text></g></g><g transform="translate(-14,-38) scale(1,1)"><path fill="#C0C0C0" stroke="none" d="M 287 248 C 287 238.6111584 325.7273648 231 373.5 231 C 421.2726352 231 460 238.6111584 460 248 C 460 257.3888416 421.2726352 265 373.5 265 C 325.7273648 265 287 257.3888416 287 248 Z" opacity="0.2"/></g><g transform="translate(-14,-38) scale(1,1)"><path fill="#ffffff" stroke="none" d="M 280 241 C 280 231.6111584 318.7273648 224 366.5 224 C 414.2726352 224 453 231.6111584 453 241 C 453 250.3888416 414.2726352 258 366.5 258 C 318.7273648 258 280 250.3888416 280 241 Z"/></g><g transform="translate(-14,-38) scale(1,1)"><path fill="none" stroke="#000000" d="M 280 241 C 280 231.6111584 318.7273648 224 366.5 224 C 414.2726352 224 453 231.6111584 453 241 C 453 250.3888416 414.2726352 258 366.5 258 C 318.7273648 258 280 250.3888416 280 241 Z" stroke-miterlimit="10"/></g><g transform="translate(-14,-38) scale(1,1)"><g><path fill="none" stroke="none"/><text fill="#000000" stroke="none" font-family="Arial" font-size="13px" font-style="normal" font-weight="bold" text-decoration="none" x="315.201416015625" y="248">Modifier son profil</text></g></g><g transform="translate(-14,-38) scale(1,1)"><path fill="#C0C0C0" stroke="none" d="M 279 328 C 279 318.6111584 320.6375136 311 372 311 C 423.3624864 311 465 318.6111584 465 328 C 465 337.3888416 423.3624864 345 372 345 C 320.6375136 345 279 337.3888416 279 328 Z" opacity="0.2"/></g><g transform="translate(-14,-38) scale(1,1)"><path fill="#ffffff" stroke="none" d="M 272 321 C 272 311.6111584 313.6375136 304 365 304 C 416.3624864 304 458 311.6111584 458 321 C 458 330.3888416 416.3624864 338 365 338 C 313.6375136 338 272 330.3888416 272 321 Z"/></g><g transform="translate(-14,-38) scale(1,1)"><path fill="none" stroke="#000000" d="M 272 321 C 272 311.6111584 313.6375136 304 365 304 C 416.3624864 304 458 311.6111584 458 321 C 458 330.3888416 416.3624864 338 365 338 C 313.6375136 338 272 330.3888416 272 321 Z" stroke-miterlimit="10"/></g><g transform="translate(-14,-38) scale(1,1)"><g><path fill="none" stroke="none"/><text fill="#000000" stroke="none" font-family="Arial" font-size="13px" font-style="normal" font-weight="bold" text-decoration="none" x="309.0009765625" y="328">Cosulter son profile</text></g></g><g transform="translate(-14,-38) scale(1,1)"><path fill="#C0C0C0" stroke="none" d="M 223 136 C 223 126.6111584 274.7111056 119 338.5 119 C 402.2888944 119 454 126.6111584 454 136 C 454 145.3888416 402.2888944 153 338.5 153 C 274.7111056 153 223 145.3888416 223 136 Z" opacity="0.2"/></g><g transform="translate(-14,-38) scale(1,1)"><path fill="#ffffff" stroke="none" d="M 216 129 C 216 119.6111584 267.7111056 112 331.5 112 C 395.2888944 112 447 119.6111584 447 129 C 447 138.3888416 395.2888944 146 331.5 146 C 267.7111056 146 216 138.3888416 216 129 Z"/></g><g transform="translate(-14,-38) scale(1,1)"><path fill="none" stroke="#000000" d="M 216 129 C 216 119.6111584 267.7111056 112 331.5 112 C 395.2888944 112 447 119.6111584 447 129 C 447 138.3888416 395.2888944 146 331.5 146 C 267.7111056 146 216 138.3888416 216 129 Z" stroke-miterlimit="10"/></g><g transform="translate(-14,-38) scale(1,1)"><g><path fill="none" stroke="none"/><text fill="#000000" stroke="none" font-family="Arial" font-size="13px" font-style="normal" font-weight="bold" text-decoration="none" x="260.330078125" y="136">Voir critères de selection</text></g></g><g transform="translate(-14,-38) scale(1,1)"><path fill="#C0C0C0" stroke="none" d="M 255 584 C 255 574.6111584 299.9953776 567 355.5 567 C 411.0046224 567 456 574.6111584 456 584 C 456 593.3888416 411.0046224 601 355.5 601 C 299.9953776 601 255 593.3888416 255 584 Z" opacity="0.2"/></g><g transform="translate(-14,-38) scale(1,1)"><path fill="#ffffff" stroke="none" d="M 248 577 C 248 567.6111584 292.9953776 560 348.5 560 C 404.0046224 560 449 567.6111584 449 577 C 449 586.3888416 404.0046224 594 348.5 594 C 292.9953776 594 248 586.3888416 248 577 Z"/></g><g transform="translate(-14,-38) scale(1,1)"><path fill="none" stroke="#000000" d="M 248 577 C 248 567.6111584 292.9953776 560 348.5 560 C 404.0046224 560 449 567.6111584 449 577 C 449 586.3888416 404.0046224 594 348.5 594 C 292.9953776 594 248 586.3888416 248 577 Z" stroke-miterlimit="10"/></g><g transform="translate(-14,-38) scale(1,1)"><g><path fill="none" stroke="none"/><text fill="#000000" stroke="none" font-family="Arial" font-size="13px" font-style="normal" font-weight="bold" text-decoration="none" x="287.806884765625" y="584">Consulter les profiles</text></g></g><g transform="translate(-14,-38) scale(1,1)"><path fill="#ffffff" stroke="none" d="M 49.85978977272727 81.68 C 49.85978977272727 76.886167936 53.745632097672726 73 58.5390625 73 C 63.332492902327274 73 67.21833522727273 76.886167936 67.21833522727273 81.68 C 67.21833522727273 86.473832064 63.332492902327274 90.36 58.5390625 90.36 C 53.745632097672726 90.36 49.85978977272727 86.473832064 49.85978977272727 81.68 Z"/></g><g transform="translate(-14,-38) scale(1,1)"><path fill="none" stroke="#000000" d="M 49.85978977272727 81.68 C 49.85978977272727 76.886167936 53.745632097672726 73 58.5390625 73 C 63.332492902327274 73 67.21833522727273 76.886167936 67.21833522727273 81.68 C 67.21833522727273 86.473832064 63.332492902327274 90.36 58.5390625 90.36 C 53.745632097672726 90.36 49.85978977272727 86.473832064 49.85978977272727 81.68 Z" stroke-miterlimit="10"/></g><g transform="translate(-14,-38) scale(1,1)"><path fill="none" stroke="#000000" d="M 58.5390625 90.36 L 58.5390625 107.64" stroke-miterlimit="10"/></g><g transform="translate(-14,-38) scale(1,1)"><path fill="none" stroke="#000000" d="M 49.34924431818182 96.84 L 67.72888068181818 96.84" stroke-miterlimit="10"/></g><g transform="translate(-14,-38) scale(1,1)"><path fill="none" stroke="#000000" d="M 58.5390625 107.64 L 45.775426136363635 125" stroke-miterlimit="10"/></g><g transform="translate(-14,-38) scale(1,1)"><path fill="none" stroke="#000000" d="M 58.5390625 107.64 L 71.30269886363637 125" stroke-miterlimit="10"/></g><g transform="translate(-14,-38) scale(1,1)"><g><path fill="none" stroke="none"/><text fill="#000000" stroke="none" font-family="Arial" font-size="13px" font-style="normal" font-weight="bold" text-decoration="none" x="37.58544921875" y="145.5">Usager</text></g></g><g transform="translate(-14,-38) scale(1,1)"><path fill="#C0C0C0" stroke="none" d="M 239 472 C 239 462.6111584 314.8877264 455 408.5 455 C 502.1122736 455 578 462.6111584 578 472 C 578 481.3888416 502.1122736 489 408.5 489 C 314.8877264 489 239 481.3888416 239 472 Z" opacity="0.2"/></g><g transform="translate(-14,-38) scale(1,1)"><path fill="#ffffff" stroke="none" d="M 232 465 C 232 455.6111584 307.8877264 448 401.5 448 C 495.1122736 448 571 455.6111584 571 465 C 571 474.3888416 495.1122736 482 401.5 482 C 307.8877264 482 232 474.3888416 232 465 Z"/></g><g transform="translate(-14,-38) scale(1,1)"><path fill="none" stroke="#000000" d="M 232 465 C 232 455.6111584 307.8877264 448 401.5 448 C 495.1122736 448 571 455.6111584 571 465 C 571 474.3888416 495.1122736 482 401.5 482 C 307.8877264 482 232 474.3888416 232 465 Z" stroke-miterlimit="10"/></g><g transform="translate(-14,-38) scale(1,1)"><g><path fill="none" stroke="none"/><text fill="#000000" stroke="none" font-family="Arial" font-size="13px" font-style="normal" font-weight="bold" text-decoration="none" x="295.852783203125" y="472">Recevoir la confirmation d'admission</text></g></g><g transform="translate(-14,-38) scale(1,1)"><path fill="#ffffff" stroke="none" d="M 40.40935031960227 569.6800000000001 C 40.40935031960227 564.8861679360001 44.295192644547726 561 49.088623046875 561 C 53.882053449202274 561 57.76789577414773 564.8861679360001 57.76789577414773 569.6800000000001 C 57.76789577414773 574.473832064 53.882053449202274 578.36 49.088623046875 578.36 C 44.295192644547726 578.36 40.40935031960227 574.473832064 40.40935031960227 569.6800000000001 Z"/></g><g transform="translate(-14,-38) scale(1,1)"><path fill="none" stroke="#000000" d="M 40.40935031960227 569.6800000000001 C 40.40935031960227 564.8861679360001 44.295192644547726 561 49.088623046875 561 C 53.882053449202274 561 57.76789577414773 564.8861679360001 57.76789577414773 569.6800000000001 C 57.76789577414773 574.473832064 53.882053449202274 578.36 49.088623046875 578.36 C 44.295192644547726 578.36 40.40935031960227 574.473832064 40.40935031960227 569.6800000000001 Z" stroke-miterlimit="10"/></g><g transform="translate(-14,-38) scale(1,1)"><path fill="none" stroke="#000000" d="M 49.088623046875 578.36 L 49.088623046875 595.64" stroke-miterlimit="10"/></g><g transform="translate(-14,-38) scale(1,1)"><path fill="none" stroke="#000000" d="M 39.89880486505682 584.84 L 58.27844122869318 584.84" stroke-miterlimit="10"/></g><g transform="translate(-14,-38) scale(1,1)"><path fill="none" stroke="#000000" d="M 49.088623046875 595.64 L 36.324986683238635 613" stroke-miterlimit="10"/></g><g transform="translate(-14,-38) scale(1,1)"><path fill="none" stroke="#000000" d="M 49.088623046875 595.64 L 61.852259410511365 613" stroke-miterlimit="10"/></g><g transform="translate(-14,-38) scale(1,1)"><g><path fill="none" stroke="none"/><text fill="#000000" stroke="none" font-family="Arial" font-size="13px" font-style="normal" font-weight="bold" text-decoration="none" x="36.80908203125" y="633.5">Jury</text></g></g><g transform="translate(-14,-38) scale(1,1)"><path fill="#C0C0C0" stroke="none" d="M 311 656 C 311 646.6111584 351.5182256 639 401.5 639 C 451.4817744 639 492 646.6111584 492 656 C 492 665.3888416 451.4817744 673 401.5 673 C 351.5182256 673 311 665.3888416 311 656 Z" opacity="0.2"/></g><g transform="translate(-14,-38) scale(1,1)"><path fill="#ffffff" stroke="none" d="M 304 649 C 304 639.6111584 344.5182256 632 394.5 632 C 444.4817744 632 485 639.6111584 485 649 C 485 658.3888416 444.4817744 666 394.5 666 C 344.5182256 666 304 658.3888416 304 649 Z"/></g><g transform="translate(-14,-38) scale(1,1)"><path fill="none" stroke="#000000" d="M 304 649 C 304 639.6111584 344.5182256 632 394.5 632 C 444.4817744 632 485 639.6111584 485 649 C 485 658.3888416 444.4817744 666 394.5 666 C 344.5182256 666 304 658.3888416 304 649 Z" stroke-miterlimit="10"/></g><g transform="translate(-14,-38) scale(1,1)"><g><path fill="none" stroke="none"/><text fill="#000000" stroke="none" font-family="Arial" font-size="13px" font-style="normal" font-weight="bold" text-decoration="none" x="343.91552734375" y="656">Produire une liste</text></g></g><g transform="translate(-14,-38) scale(1,1)"><path fill="none" stroke="#000000" d="M 426 259 L 572 303" stroke-miterlimit="10" stroke-dasharray="3"/></g><g transform="translate(-14,-38) scale(1,1)"><path fill="none" stroke="#000000" d="M 561.0549388157775 304.0980144232323 L 572 303 L 563.4842595716264 296.03708646064285" stroke-miterlimit="10"/></g><g transform="translate(-14,-38) scale(1,1)"><g><path fill="none" stroke="none"/><text fill="#000000" stroke="none" font-family="Arial" font-size="13px" font-style="normal" font-weight="normal" text-decoration="none" x="494.5" y="279.5">«include»</text></g></g><g transform="translate(-14,-38) scale(1,1)"><path fill="none" stroke="#000000" d="M 459 321 L 567 321" stroke-miterlimit="10" stroke-dasharray="3"/></g><g transform="translate(-14,-38) scale(1,1)"><path fill="none" stroke="#000000" d="M 556.8373251423759 325.209517756016 L 567 321 L 556.8373251423758 316.790482243984" stroke-miterlimit="10"/></g><g transform="translate(-14,-38) scale(1,1)"><g><path fill="none" stroke="none"/><text fill="#000000" stroke="none" font-family="Arial" font-size="13px" font-style="normal" font-weight="normal" text-decoration="none" x="449.5" y="312.5">«include»</text></g></g><g transform="translate(-14,-38) scale(1,1)"><path fill="#C0C0C0" stroke="none" d="M 231 736 C 231 726.6111584 281.36796 719 343.5 719 C 405.63204 719 456 726.6111584 456 736 C 456 745.3888416 405.63204 753 343.5 753 C 281.36796 753 231 745.3888416 231 736 Z" opacity="0.2"/></g><g transform="translate(-14,-38) scale(1,1)"><path fill="#ffffff" stroke="none" d="M 224 729 C 224 719.6111584 274.36796 712 336.5 712 C 398.63204 712 449 719.6111584 449 729 C 449 738.3888416 398.63204 746 336.5 746 C 274.36796 746 224 738.3888416 224 729 Z"/></g><g transform="translate(-14,-38) scale(1,1)"><path fill="none" stroke="#000000" d="M 224 729 C 224 719.6111584 274.36796 712 336.5 712 C 398.63204 712 449 719.6111584 449 729 C 449 738.3888416 398.63204 746 336.5 746 C 274.36796 746 224 738.3888416 224 729 Z" stroke-miterlimit="10"/></g><g transform="translate(-14,-38) scale(1,1)"><g><path fill="none" stroke="none"/><text fill="#000000" stroke="none" font-family="Arial" font-size="13px" font-style="normal" font-weight="bold" text-decoration="none" x="266.412353515625" y="736">Résultat définitif en PDF</text></g></g><g transform="translate(-14,-38) scale(1,1)"><path fill="#C0C0C0" stroke="none" d="M 503 728 C 503 718.6111584 566.799416 711 645.5 711 C 724.200584 711 788 718.6111584 788 728 C 788 737.3888416 724.200584 745 645.5 745 C 566.799416 745 503 737.3888416 503 728 Z" opacity="0.2"/></g><g transform="translate(-14,-38) scale(1,1)"><path fill="#ffffff" stroke="none" d="M 496 721 C 496 711.6111584 559.799416 704 638.5 704 C 717.200584 704 781 711.6111584 781 721 C 781 730.3888416 717.200584 738 638.5 738 C 559.799416 738 496 730.3888416 496 721 Z"/></g><g transform="translate(-14,-38) scale(1,1)"><path fill="none" stroke="#000000" d="M 496 721 C 496 711.6111584 559.799416 704 638.5 704 C 717.200584 704 781 711.6111584 781 721 C 781 730.3888416 717.200584 738 638.5 738 C 559.799416 738 496 730.3888416 496 721 Z" stroke-miterlimit="10"/></g><g transform="translate(-14,-38) scale(1,1)"><g><path fill="none" stroke="none"/><text fill="#000000" stroke="none" font-family="Arial" font-size="13px" font-style="normal" font-weight="bold" text-decoration="none" x="547.09375" y="728">Résumé des profiles en EXCEL</text></g></g><g transform="translate(-14,-38) scale(1,1)"><path fill="none" stroke="#000000" d="M 577 703 L 455 667" stroke-miterlimit="10"/></g><g transform="translate(-14,-38) scale(1,1)"><path fill="#FFFFFF" stroke="none" d="M 476.87707692263825 664.677607845137 L 455 667 L 472.1116086858153 680.8272502032592"/></g><g transform="translate(-14,-38) scale(1,1)"><path fill="none" stroke="#000000" d="M 476.87707692263825 664.677607845137 L 455 667 L 472.1116086858153 680.8272502032592 L 476.87707692263825 664.677607845137" stroke-miterlimit="10"/></g><g transform="translate(-14,-38) scale(1,1)"><path fill="none" stroke="#000000" d="M 349 711 L 381 667" stroke-miterlimit="10"/></g><g transform="translate(-14,-38) scale(1,1)"><path fill="#FFFFFF" stroke="none" d="M 375.8539823657536 688.3896821507012 L 381 667 L 362.23642673853317 678.4860053309045"/></g><g transform="translate(-14,-38) scale(1,1)"><path fill="none" stroke="#000000" d="M 375.8539823657536 688.3896821507012 L 381 667 L 362.23642673853317 678.4860053309045 L 375.8539823657536 688.3896821507012" stroke-miterlimit="10"/></g><g transform="translate(-14,-38) scale(1,1)"><path fill="#C0C0C0" stroke="none" d="M 263 528 C 263 518.6111584 285.6096176 511 313.5 511 C 341.3903824 511 364 518.6111584 364 528 C 364 537.3888416 341.3903824 545 313.5 545 C 285.6096176 545 263 537.3888416 263 528 Z" opacity="0.2"/></g><g transform="translate(-14,-38) scale(1,1)"><path fill="#ffffff" stroke="none" d="M 256 521 C 256 511.6111584 278.6096176 504 306.5 504 C 334.3903824 504 357 511.6111584 357 521 C 357 530.3888416 334.3903824 538 306.5 538 C 278.6096176 538 256 530.3888416 256 521 Z"/></g><g transform="translate(-14,-38) scale(1,1)"><path fill="none" stroke="#000000" d="M 256 521 C 256 511.6111584 278.6096176 504 306.5 504 C 334.3903824 504 357 511.6111584 357 521 C 357 530.3888416 334.3903824 538 306.5 538 C 278.6096176 538 256 530.3888416 256 521 Z" stroke-miterlimit="10"/></g><g transform="translate(-14,-38) scale(1,1)"><g><path fill="none" stroke="none"/><text fill="#000000" stroke="none" font-family="Arial" font-size="13px" font-style="normal" font-weight="bold" text-decoration="none" x="282.661376953125" y="528">Par mail</text></g></g><g transform="translate(-14,-38) scale(1,1)"><path fill="#C0C0C0" stroke="none" d="M 495 552 C 495 542.6111584 517.6096176 535 545.5 535 C 573.3903824 535 596 542.6111584 596 552 C 596 561.3888416 573.3903824 569 545.5 569 C 517.6096176 569 495 561.3888416 495 552 Z" opacity="0.2"/></g><g transform="translate(-14,-38) scale(1,1)"><path fill="#ffffff" stroke="none" d="M 488 545 C 488 535.6111584 510.6096176 528 538.5 528 C 566.3903824 528 589 535.6111584 589 545 C 589 554.3888416 566.3903824 562 538.5 562 C 510.6096176 562 488 554.3888416 488 545 Z"/></g><g transform="translate(-14,-38) scale(1,1)"><path fill="none" stroke="#000000" d="M 488 545 C 488 535.6111584 510.6096176 528 538.5 528 C 566.3903824 528 589 535.6111584 589 545 C 589 554.3888416 566.3903824 562 538.5 562 C 510.6096176 562 488 554.3888416 488 545 Z" stroke-miterlimit="10"/></g><g transform="translate(-14,-38) scale(1,1)"><g><path fill="none" stroke="none"/><text fill="#000000" stroke="none" font-family="Arial" font-size="13px" font-style="normal" font-weight="bold" text-decoration="none" x="512.49365234375" y="552">Par SMS</text></g></g><g transform="translate(-14,-38) scale(1,1)"><path fill="none" stroke="#000000" d="M 507 527 L 432 483" stroke-miterlimit="10"/></g><g transform="translate(-14,-38) scale(1,1)"><path fill="#FFFFFF" stroke="none" d="M 453.7912753306497 486.0232961257241 L 432 483 L 445.270965364971 500.54655174904"/></g><g transform="translate(-14,-38) scale(1,1)"><path fill="none" stroke="#000000" d="M 453.7912753306497 486.0232961257241 L 432 483 L 445.270965364971 500.54655174904 L 453.7912753306497 486.0232961257241" stroke-miterlimit="10"/></g><g transform="translate(-14,-38) scale(1,1)"><path fill="none" stroke="#000000" d="M 337 503 L 370 483" stroke-miterlimit="10"/></g><g transform="translate(-14,-38) scale(1,1)"><path fill="#FFFFFF" stroke="none" d="M 356.98140555167953 500.73460455127656 L 370 483 L 348.2542044442056 486.33472272394454"/></g><g transform="translate(-14,-38) scale(1,1)"><path fill="none" stroke="#000000" d="M 356.98140555167953 500.73460455127656 L 370 483 L 348.2542044442056 486.33472272394454 L 356.98140555167953 500.73460455127656" stroke-miterlimit="10"/></g><g transform="translate(-14,-38) scale(1,1)"><path fill="none" stroke="#000000" d="M 111 223 L 77 152" stroke-miterlimit="10"/></g><g transform="translate(-14,-38) scale(1,1)"><path fill="#FFFFFF" stroke="none" d="M 93.37190812097406 166.69559881319518 L 77 152 L 78.18532967889658 173.96804482771117"/></g><g transform="translate(-14,-38) scale(1,1)"><path fill="none" stroke="#000000" d="M 93.37190812097406 166.69559881319518 L 77 152 L 78.18532967889658 173.96804482771117 L 93.37190812097406 166.69559881319518" stroke-miterlimit="10"/></g><g transform="translate(-14,-38) scale(1,1)"><path fill="none" stroke="#000000" d="M 50 559 L 57 152" stroke-miterlimit="10"/></g><g transform="translate(-14,-38) scale(1,1)"><path fill="#FFFFFF" stroke="none" d="M 65.06826623937968 172.4671219249431 L 57 152 L 48.232685065784736 172.177566474783"/></g><g transform="translate(-14,-38) scale(1,1)"><path fill="none" stroke="#000000" d="M 65.06826623937968 172.4671219249431 L 57 152 L 48.232685065784736 172.177566474783 L 65.06826623937968 172.4671219249431" stroke-miterlimit="10"/></g><g transform="translate(-14,-38) scale(1,1)"><path fill="none" stroke="#000000" d="M 366 259 L 365 303" stroke-miterlimit="10" stroke-dasharray="3"/></g><g transform="translate(-14,-38) scale(1,1)"><path fill="none" stroke="#000000" d="M 361.0224792467554 292.7443026245161 L 365 303 L 369.43934126307227 292.93559494306874" stroke-miterlimit="10"/></g><g transform="translate(-14,-38) scale(1,1)"><g><path fill="none" stroke="none"/><text fill="#000000" stroke="none" font-family="Arial" font-size="13px" font-style="normal" font-weight="normal" text-decoration="none" x="303.5" y="285.5">«extend»</text></g></g><g transform="translate(-14,-38) scale(1,1)"><path fill="none" stroke="#000000" d="M 85 121 L 216 121" stroke-miterlimit="10"/></g><g transform="translate(-14,-38) scale(1,1)"><path fill="none" stroke="#000000" d="M 165 247 L 265 203" stroke-miterlimit="10"/></g><g transform="translate(-14,-38) scale(1,1)"><path fill="none" stroke="#000000" d="M 75 597 L 247 584" stroke-miterlimit="10"/></g><g transform="translate(-14,-38) scale(1,1)"><path fill="none" stroke="#000000" d="M 75 603 L 303 636" stroke-miterlimit="10"/></g><g transform="translate(-14,-38) scale(1,1)"><path fill="#C0C0C0" stroke="none" d="M 231 408 C 231 398.6111584 277.3385232 391 334.5 391 C 391.6614768 391 438 398.6111584 438 408 C 438 417.3888416 391.6614768 425 334.5 425 C 277.3385232 425 231 417.3888416 231 408 Z" opacity="0.2"/></g><g transform="translate(-14,-38) scale(1,1)"><path fill="#ffffff" stroke="none" d="M 224 401 C 224 391.6111584 270.3385232 384 327.5 384 C 384.6614768 384 431 391.6111584 431 401 C 431 410.3888416 384.6614768 418 327.5 418 C 270.3385232 418 224 410.3888416 224 401 Z"/></g><g transform="translate(-14,-38) scale(1,1)"><path fill="none" stroke="#000000" d="M 224 401 C 224 391.6111584 270.3385232 384 327.5 384 C 384.6614768 384 431 391.6111584 431 401 C 431 410.3888416 384.6614768 418 327.5 418 C 270.3385232 418 224 410.3888416 224 401 Z" stroke-miterlimit="10"/></g><g transform="translate(-14,-38) scale(1,1)"><g><path fill="none" stroke="none"/><text fill="#000000" stroke="none" font-family="Arial" font-size="13px" font-style="normal" font-weight="bold" text-decoration="none" x="263.550537109375" y="408">Retirer sa candidature</text></g></g><g transform="translate(-14,-38) scale(1,1)"><path fill="none" stroke="#000000" d="M 396 383 L 567 338" stroke-miterlimit="10" stroke-dasharray="3"/></g><g transform="translate(-14,-38) scale(1,1)"><path fill="none" stroke="#000000" d="M 558.2432299768171 344.65725009002114 L 567 338 L 556.1006418526076 336.515415218025" stroke-miterlimit="10"/></g><g transform="translate(-14,-38) scale(1,1)"><g><path fill="none" stroke="none"/><text fill="#000000" stroke="none" font-family="Arial" font-size="13px" font-style="normal" font-weight="normal" text-decoration="none" x="454.5" y="380.5">«include»</text></g></g><g transform="translate(-14,-38) scale(1,1)"><path fill="none" stroke="#000000" d="M 336 383 L 356 339" stroke-miterlimit="10" stroke-dasharray="3"/></g><g transform="translate(-14,-38) scale(1,1)"><path fill="none" stroke="#000000" d="M 355.62685907330007 349.9936693532606 L 356 339 L 347.96245137057895 346.50984767020555" stroke-miterlimit="10"/></g><g transform="translate(-14,-38) scale(1,1)"><g><path fill="none" stroke="none"/><text fill="#000000" stroke="none" font-family="Arial" font-size="13px" font-style="normal" font-weight="normal" text-decoration="none" x="291.5" y="366.5">«extend»</text></g></g></g></svg>